<?xml version="1.0" encoding="utf-8"?>
<!-- Uploaded to: SVG Repo, www.svgrepo.com, Generator: SVG Repo Mixer Tools -->
<svg width="800px" height="800px" viewBox="-0.62 0 289.993 289.993" xmlns="http://www.w3.org/2000/svg"><defs><style>.a{fill:#a98a75;}.b{fill:#ffffff;}.c{fill:#f8b8b4;}.d{fill:#211715;}.e{fill:#c6c6c6;}.f{fill:#febe69;}</style></defs><path class="a" d="M227.833,139.116c6-3.111,7.6-9.412,7.758-12.912a33.614,33.614,0,0,0-2.2-13.756c-2.027-6.087-5.74-18.435-5.051-40.253a94.988,94.988,0,0,0,.686-13.806c-.021-2.149-.075-3.968-.122-5.159-.49-13.588-8.505-29.216-19.31-36.275C194.973,4.54,181.836,1.754,168.744,2.539c-17.9,1.073-32.233,8.136-41.772,19.6-5.508,6.62-9.419,16.2-10.868,24.715a87.679,87.679,0,0,0,.912,30.074c2.257,19.853-4.221,34.628-2.515,49.781a16.612,16.612,0,0,0,7.874,12.434l18.231,7.649,71.111-1.778Z"/><path class="b" d="M148.225,132a38.453,38.453,0,0,1-17.775-9.927c-7.755-7.3-10.6-18.152-11.075-29.971-.266-6.586-.4-13.715-.829-20.878l1.41-.992c.646-.454,1.663-1.1,2.506-1.71,7.71-5.513,15.965-12.3,23.6-18.808a.414.414,0,0,1,.662.444,30.01,30.01,0,0,0-1.3,7.189,1.874,1.874,0,0,0,2.417,1.905c11.8-3.564,22.768-9.938,30.167-18.252a124.811,124.811,0,0,0,5.31,13.739c2.394,5.162,8.816,14.055,14.609,16.807,4.578,3.127,8.375,5.24,13.214,8.345a7.469,7.469,0,0,1,5.461-.812c3.648.815,4.856,3,5.317,4.237,1.377,3.7.14,9.783-1.925,13.31a19.55,19.55,0,0,1-7.969,8.164,14.272,14.272,0,0,1-7.64,1.073c-.424.6-.792,1.119-.792,1.119-.965,1.7-3.174,4.644-3.174,4.644-1.263,1.616-2.569,3.178-3.985,4.693l.19,1.486,1.314,6.553c.362,1.8,1.681,3.48,2.414,5.166,2.075,4.771,10.476,6.1,16.007,8.188-11.926,13.318-29.56,19.124-46.641,19.3a46.791,46.791,0,0,1-17.853-2.982c-5.964-2.356-11.367-6.048-14.754-11.893,4.261-1.611,9.828-3.543,13.06-5.034,2.12-.76,4.65-2.05,5.72-4.08A40.013,40.013,0,0,1,148.225,132Z"/><path class="c" d="M247.981,148.483c-8.579-5.761-19.127-8.5-31.141-11.31-11.927,13.695-29.805,19.656-47.114,19.831a46.791,46.791,0,0,1-17.853-2.982c-6.073-2.4-11.564-6.183-14.931-12.216-7.747,2.753-15.911,6.759-20.082,11.462-6.847,7.724-9.53,18.514-11.873,25.153-2.612,7.4-7.093,28.06-9.081,43.583C93.954,237.25,93.94,246,96.088,256.13c1.073,5.062,5.264,12.525,12,15.572A24.97,24.97,0,0,0,126.34,273c.7.746,1.1,1.171,1.1,1.171l9.706,10.3a10,10,0,0,0,7.279,3.143H273.565a32.467,32.467,0,0,0,11.292-16.788c.981-3.138,1.575-10.9,1.475-14.365-.126-4.328-2.064-16.026-3.106-21.782-1.9-11.08-4.6-20.775-7.182-30.343-2.509-9.286-8.117-32.122-16.986-44.923A41.235,41.235,0,0,0,247.981,148.483Z"/><path class="d" d="M137.767,144.439c3.628-1.368,7.3-2.636,10.886-4.1.85-.347,1.683-.736,2.533-1.079-.254.1.028,0,.127-.037.267-.1.529-.214.792-.325.484-.2.964-.414,1.431-.655a10.514,10.514,0,0,0,4.436-4.018c1.515-2.7-2.63-5.118-4.145-2.423a6.818,6.818,0,0,1-3.221,2.546c-1.266.6-2.663,1.141-4,1.672-3.346,1.33-6.747,2.519-10.116,3.79a2.467,2.467,0,0,0-1.676,2.952,2.418,2.418,0,0,0,2.952,1.676Z"/><path class="d" d="M164.993,85.44c-.481-2.439.559-7.827,5.085-7.823,5.914.653,5.544,7.259,3.23,10.142C171.414,90.119,166.508,90.672,164.993,85.44Z"/><path class="d" d="M129.743,82.883c-.426-2.443.561-7.852,4.708-7.877,5.414.617,5.034,7.244,2.9,10.149C135.6,87.534,131.1,88.119,129.743,82.883Z"/><path class="d" d="M147.54,89.8c-.858,1.238-1.686,2.5-2.432,3.813a5.23,5.23,0,0,0-.753,2.246,3.3,3.3,0,0,0,1.105,2.576,4.917,4.917,0,0,0,1.945,1.154c.283.09.58.111.869.174a2.543,2.543,0,0,0,1.849-.242,2.4,2.4,0,0,0-.573-4.387,6.217,6.217,0,0,1-1.079-.252l.573.242a2.465,2.465,0,0,1-.443-.261l.485.376a3.469,3.469,0,0,1-.47-.453l.375.486a.686.686,0,0,1-.1-.151l.242.573a1.018,1.018,0,0,1-.069-.25l.085.638a1.514,1.514,0,0,1,.01-.269l-.086.638a2.416,2.416,0,0,1,.142-.464l-.242.574a18.382,18.382,0,0,1,1.35-2.292q.663-1.034,1.36-2.047a2.4,2.4,0,0,0-2.71-3.525,2.68,2.68,0,0,0-1.435,1.1Z"/><path class="d" d="M212.36,81.958a5.9,5.9,0,0,1,6.02.431c.028.021.288.246.386.343a4.173,4.173,0,0,1,.336.355c.127.174.233.36.343.545.047.081.3.61.165.3s.116.348.149.455a7.585,7.585,0,0,1,.258,1.091,13.335,13.335,0,0,1-.107,4.1c-.9,5.348-4.24,10.825-9.253,13.215.425-.2-.217.076-.365.126q-.454.151-.918.271a12.31,12.31,0,0,1-1.894.351,7.791,7.791,0,0,1-4.543-.672c-2.708-1.489-5.133,2.654-2.422,4.145,3.336,1.834,7.638,1.731,11.173.493a18.885,18.885,0,0,0,8.784-7.155,23.185,23.185,0,0,0,4.127-9.871c.525-3.367.566-7.234-1.56-10.1a10.341,10.341,0,0,0-13.1-2.571c-2.684,1.529-.268,5.678,2.422,4.145Z"/><path class="d" d="M116.1,70.471c.5,8.164.421,16.371,1.04,24.525.52,6.84,1.881,13.681,5,19.841,6.111,12.087,19.384,19.675,32.664,20.514,8.261.522,16.386-1.287,24.078-4.195a2.466,2.466,0,0,0,1.676-2.952,2.418,2.418,0,0,0-2.952-1.676A56.337,56.337,0,0,1,157.6,130.64a35.635,35.635,0,0,1-17.486-4.355,33.9,33.9,0,0,1-13.041-12.4c-3.055-5.36-4.461-11.562-5.026-17.66-.791-8.546-.619-17.186-1.143-25.753-.188-3.069-4.989-3.09-4.8,0Z"/><path class="d" d="M149.967,112.211c.176-.227.535-.767.83-.865q-.361.272-.146.119c.069-.05.14-.1.212-.143.169-.108.343-.2.522-.3.554-.282-.322.083.139-.073.166-.056.329-.118.5-.169.4-.122.8-.2,1.205-.282.5-.1-.484.039.066-.011.176-.016.352-.033.528-.044a12.447,12.447,0,0,1,1.352-.017c.206.01.413.022.617.049-.56-.073.047.029.171.061s.264.072.394.116c.248.093.217.076-.093-.049.118-.007.364.189.456.245.133.081.585.256.078.022a1.89,1.89,0,0,1,.444.409c.061.061.12.125.176.19q.252.3-.055-.079s.265.417.277.438c.056.1.109.2.158.306l-.106-.256c.132.137.152.512.205.688.143.473.007-.436.016.1,0,.188,0,.372,0,.559,0,.489.11-.428-.028.193a1.654,1.654,0,0,1-.18.626q.174-.382.062-.143c-.038.085-.08.168-.125.25a1.549,1.549,0,0,1-.295.474q.29-.36.034-.061c-.081.089-.166.174-.254.256-.314.341.354-.177-.083.062a2.678,2.678,0,0,1-.233.132q-.238.12.169-.064a2.854,2.854,0,0,1-.339.1q.523-.05.112-.024a2.4,2.4,0,0,0,0,4.8,6.106,6.106,0,0,0,5.159-3.5,7.557,7.557,0,0,0,.1-6.454,7.393,7.393,0,0,0-4.3-3.816,11.714,11.714,0,0,0-5.936-.152,8.636,8.636,0,0,0-5.2,2.912,2.627,2.627,0,0,0-.7,1.7,2.443,2.443,0,0,0,.7,1.7c.861.79,2.571,1.058,3.4,0Z"/><path class="d" d="M194.318,118.438c.635,3.167.954,6.577,2.47,9.467,1.2,2.291,2.229,4.577,4.317,6.2,3.958,3.074,9.167,4.011,13.805,5.619a2.4,2.4,0,1,0,1.276-4.628c-4.159-1.443-8.68-2.175-12.135-4.737-.135-.1-.127-.093.025.02-.089-.073-.175-.147-.26-.223-.191-.18-.384-.353-.563-.545-.07-.075-.458-.57-.181-.187a6.179,6.179,0,0,1-.35-.542c-.607-1.056-1.136-2.18-1.713-3.257a12.864,12.864,0,0,1-1.113-3.73l-.949-4.733a2.4,2.4,0,0,0-4.629,1.276Z"/><path class="e" d="M56.368,81.03a54.723,54.723,0,0,1,9.519,1.933C73.417,85.65,77.7,91.153,77.6,99.146c-.038,2.972-.666,7.148-3.23,9.977-1.047,1.155-2.239,2.333-3.577,3.664a3.244,3.244,0,0,0-.19,4.339,20.856,20.856,0,0,1,4.838,14.525c-.137,2.47-1.619,4.732-2.69,6.33a10.664,10.664,0,0,1-1.676,1.979,3.239,3.239,0,0,0,.217,4.973c3.67,2.75,7.751,6.98,7.961,10.179.2,2.978-.852,5.448-2.959,6.3a5.876,5.876,0,0,1-3.894-.071c-6.162-2.144-12.725-5.015-27.78-5.421-.07,0-.142-.006-.212-.013-8.052-.764-16.854-1.876-20.441-11.4a20.877,20.877,0,0,1-.888-10.93c.16-.921.348-1.872.551-2.824,1.273-5.955-.646-11.074-7.325-12.8-1.055-.272-3-.781-3.409-.892C3.967,114.679-.366,107.142.024,97.726A15.764,15.764,0,0,1,2.9,89.091a18.047,18.047,0,0,1,6.791-5.714C21.592,78.775,40.22,79.489,56.368,81.03Z"/><path class="d" d="M138.029,138.9c-6.586,2.219-13.33,4.956-18.917,9.168-5.32,4.01-8.844,9.687-11.439,15.747a169.168,169.168,0,0,0-9.333,30.655c-2.922,13.432-5.391,27.163-6.131,40.908A82.13,82.13,0,0,0,93.05,252.9a33.168,33.168,0,0,0,1.829,7.368,29.172,29.172,0,0,0,4.664,7.767c8.013,9.573,24.009,11.465,33.909,3.794a22.184,22.184,0,0,0,3.425-3.286,2.464,2.464,0,0,0,0-3.394,2.42,2.42,0,0,0-3.394,0,18.35,18.35,0,0,1-14.226,6.62c-5.431.025-11.135-1.782-15.009-5.688-3.633-3.661-5.461-8.184-6.352-13.176a73.364,73.364,0,0,1-.979-15.475c.449-12.86,2.725-25.708,5.33-38.285a213.762,213.762,0,0,1,7.99-28.795c2.187-6.117,5.045-12.618,9.978-17.036,5.287-4.735,12.454-7.55,19.09-9.786,2.912-.981,1.662-5.619-1.276-4.628Z"/><path class="d" d="M275.263,289.31a34.459,34.459,0,0,0,13.031-24.49,62.624,62.624,0,0,0,.44-8.247c-.14-5.446-1.236-10.948-2.121-16.311-1.13-6.854-2.407-13.676-4.034-20.431-1.555-6.452-3.347-12.843-5.054-19.256-1.409-5.292-2.871-10.571-4.544-15.787-3.774-11.766-8.367-24.39-17.393-33.211-9.051-8.844-21.376-12.646-33.371-15.587-1.662-.408-3.327-.8-4.993-1.191-3-.7-4.287,3.924-1.276,4.628,11.427,2.674,23.781,5.367,33.182,12.838s14.166,18.94,17.964,30.005c3.661,10.667,6.436,21.665,9.28,32.573a270.816,270.816,0,0,1,7.268,38.073c1.141,10.217-.526,21.362-7.677,29.18a37.762,37.762,0,0,1-4.1,3.82,2.417,2.417,0,0,0,0,3.394,2.456,2.456,0,0,0,3.395,0Z"/><path class="b" d="M131.734,182.627c2.451,6,4.927,12.686,2.731,18.783-.738,2.049-1.97,3.887-2.785,5.907-1.229,3.046-1.01,5.218-1.235,8.5-.168,2.444-.035,4.461-.688,6.552a8.259,8.259,0,0,1-4.568,5.491,31.235,31.235,0,0,1-5.972,1.177c-5.659.718-10.274.223-14.211-3.311a6.334,6.334,0,0,1-1.738-6.82c.183-.508.337-1,.468-1.474.827-2.984.991-6.179-1.5-8.023A20.656,20.656,0,0,1,95.906,202a19.227,19.227,0,0,1-1.677-7.1c-.094-5.548.262-9.375.074-15.273l2.753-9.066,1-3.286a16.018,16.018,0,0,1,4.224-7.016,10.012,10.012,0,0,1,7.555-2.754,3.445,3.445,0,0,1,1.54.9,4.252,4.252,0,0,1,1.075,3.323l3.575,9.167c.015-.167.033-.339.053-.518a10.275,10.275,0,0,1,2.575-5.8c1.45-1.544,4.241-1.464,5.889-.355,1.9,1.277,1.984,3.029,2.623,5.379a105.033,105.033,0,0,0,4.575,13.128"/><path class="d" d="M91.944,181.216c.121,8.214-1.592,17.115,3.294,24.332A22.234,22.234,0,0,0,99,209.866c1.2,1.049,2.669,1.742,2.86,3.463.2,1.846-.531,3.566-1.025,5.3a8.891,8.891,0,0,0,.641,6.368c1.7,3.429,5.9,5.637,9.523,6.325a32.991,32.991,0,0,0,12.064-.451,10.26,10.26,0,0,0,8.719-7.049c1.526-3.93.835-8.411,1.322-12.523A18.9,18.9,0,0,1,135.473,205a19.417,19.417,0,0,0,2.2-7.489c.385-5.376-1.634-10.641-3.624-15.526a2.478,2.478,0,0,0-2.953-1.677,2.417,2.417,0,0,0-1.676,2.953c1.587,3.9,3.293,8.012,3.476,12.267a13.13,13.13,0,0,1-.949,5.76c-.808,1.9-1.912,3.657-2.66,5.592-1.391,3.6-1.187,7.729-1.361,11.525-.132,2.87-1.061,6.446-3.975,7.334a29.416,29.416,0,0,1-10.362,1.115c-2.7-.2-6.413-1.4-7.8-3.957-.848-1.57-.315-2.9.153-4.477a14.476,14.476,0,0,0,.7-5.266,7.835,7.835,0,0,0-2.166-4.982c-1.249-1.245-2.735-2.178-3.918-3.518a15.424,15.424,0,0,1-3.929-9.508c-.215-4.634.176-9.3.108-13.934-.046-3.086-4.846-3.095-4.8,0Z"/><path class="d" d="M97.843,186.58a61.564,61.564,0,0,1,14.967-1.329c2.019.013,3.717.208,4.89,1.62.65.781,1.426,1.9.976,2.858a2.951,2.951,0,0,1-1.132,1.049c-.715.484-1.419.963-2.092,1.507a2.418,2.418,0,0,0,0,3.4,2.459,2.459,0,0,0,3.395,0,22.725,22.725,0,0,0,3.2-2.455,6.29,6.29,0,0,0,1.452-5.132,9.476,9.476,0,0,0-4.833-6.5,14.214,14.214,0,0,0-6.453-1.142c-2.334.014-4.669.127-7,.3a52.541,52.541,0,0,0-8.654,1.2c-3,.743-1.727,5.374,1.277,4.628Z"/><path class="d" d="M103.948,196.651c2.256-.6,4.49-1.334,6.8-1.716.151-.025.3-.049.455-.07-.047.007-.354.032-.071.015.263-.016.527-.052.791-.067a12.9,12.9,0,0,1,1.691.008c.15.011.3.027.45.042.285.026-.032,0-.075-.009.209.043.424.1.634.131.481.068-.4-.2-.065-.034a2.375,2.375,0,0,0,.207.125c-.057.016-.426-.4-.2-.153a3.8,3.8,0,0,0,.3.308c.165.139-.19-.213-.182-.238a2.449,2.449,0,0,0,.14.214c.072.131.135.28.217.4.127.191-.108-.254-.108-.265a1.568,1.568,0,0,0,.114.324c.049.156.093.314.129.473.028.119.094.652.06.245s.009.146.015.26c.011.195.015.391.01.586,0,.172-.019.341-.029.512-.031.545.094-.4,0,.009-.08.34-.207.681-.279,1.019-.048.229.107-.25.114-.258a1.583,1.583,0,0,0-.116.241c-.07.135-.154.261-.23.393-.246.426.313-.282.029-.039-.216.185-.4.424-.6.626q-.55.551-1.149,1.05c-.094.078-.192.152-.285.232.136-.116.278-.208.054-.043q-.293.218-.589.427c-.959.672-1.954,1.292-2.929,1.939a2.4,2.4,0,0,0,2.422,4.144,38.4,38.4,0,0,0,5.652-4.14,8.3,8.3,0,0,0,1.884-2.407,9.406,9.406,0,0,0,.831-3.266,8.014,8.014,0,0,0-1.659-5.69c-1.54-1.876-4.188-2.1-6.456-1.97a46.833,46.833,0,0,0-9.249,2.01,2.4,2.4,0,1,0,1.276,4.628Z"/><path class="d" d="M114.847,161.727c-.021-2.467-.874-4.818-3.157-6.053-2.33-1.26-5.424-.455-7.694.576-4.245,1.93-6.945,6.167-8.287,10.486-.33,1.06-.645,2.125-.968,3.187a2.424,2.424,0,0,0,1.677,2.952A2.45,2.45,0,0,0,99.37,171.2c.313-1.031.621-2.064.939-3.094a14.534,14.534,0,0,1,.832-2.192,16.7,16.7,0,0,1,.842-1.544q.2-.319.41-.63.141-.206.29-.407-.184.231.087-.1a14.036,14.036,0,0,1,1.2-1.271c.072-.065.714-.587.488-.421.2-.149.413-.29.626-.425.284-.179.577-.345.876-.5q.225-.114.454-.217-.224.093.008,0a9.341,9.341,0,0,1,1.806-.494c-.411.067.34-.024.352-.025.082,0,1,.015,1,.006-.009.03-.906-.272-.227-.015.088.05.174.1.257.161-.219-.182-.234-.194-.045-.034a2.968,2.968,0,0,1,.259.267q-.228-.314,0,.019c.305.435-.055-.359.082.148.032.119.153.928.107.374.026.307.035.614.037.922a2.4,2.4,0,0,0,4.8,0Z"/><path class="b" d="M86.744,178.676l4.8,8.209,26.846-15.918-4.8-8.209Z"/><path class="f" d="M126.856,156.261a2.1,2.1,0,0,0-2.211-.057l-11.1,6.482,4.795,8.209,11.1-6.482a2.1,2.1,0,0,0,.754-2.871l-2.678-4.585A2.1,2.1,0,0,0,126.856,156.261Z"/><path class="e" d="M81.411,183.983a3.2,3.2,0,0,0,.423,1.3l1.564,2.676a3.2,3.2,0,0,0,4.382,1.151l3.774-2.205-4.8-8.209-3.773,2.205A3.2,3.2,0,0,0,81.411,183.983Z"/><path class="d" d="M120.416,169.683l-4.8-8.209a2.4,2.4,0,0,0-4.145,2.423l4.8,8.209a2.4,2.4,0,1,0,4.144-2.423Z"/><path class="d" d="M88.991,191.186l19.221-11.4c7.371-4.37,14.81-8.642,22.119-13.115a4.667,4.667,0,0,0,1.845-6.5c-.587-1.075-1.238-2.119-1.856-3.176a6.762,6.762,0,0,0-2.568-2.98c-2.968-1.545-6.3,1.288-8.762,2.747l-26.984,16-9.363,5.552a6.683,6.683,0,0,0-3.352,3.592,6.179,6.179,0,0,0,.84,5.222,14.043,14.043,0,0,0,2.221,3.321,5.733,5.733,0,0,0,6.639.734c2.748-1.413.323-5.556-2.422-4.145-.845.434-1.223-.5-1.579-1.111-.329-.563-1.229-1.6-1.212-2.275.017-.645.99-1.017,1.464-1.3l8.813-5.226,25.571-15.161,4.235-2.511c.382-.226,1.731-.732,1.933-1.146.049-.1.383.022-.2,0,.072,0-.127-.181-.146-.128s.213.359.24.41c.553,1.055,1.208,2.069,1.809,3.1.115.195.368.869.573.98.3.161-.2-.45.15-.326-.065-.023-.394.233-.453.268l-20.586,12.206c-6.747,4-13.568,7.9-20.251,12.008-.12.073-.243.143-.364.215C83.914,188.616,86.325,192.767,88.991,191.186Z"/><path class="d" d="M84.686,179.912l4.795,8.209a2.4,2.4,0,1,0,4.145-2.423l-4.8-8.209a2.4,2.4,0,0,0-4.145,2.423Z"/><path class="b" d="M117.583,178.34a12.39,12.39,0,0,1-1.508-7.964,10.275,10.275,0,0,1,2.575-5.8c1.45-1.544,4.241-1.464,5.889-.355,1.9,1.277,1.984,3.029,2.623,5.379a90.638,90.638,0,0,0,4.572,13.022Z"/><path class="d" d="M119.212,176.2a16.153,16.153,0,0,1-.633-1.732c-.078-.272-.133-.546-.194-.821q-.068-.418-.005,0c-.016-.15-.028-.3-.036-.452a11.625,11.625,0,0,1,.5-4.271,7.613,7.613,0,0,1,.944-1.93c.174-.259.364-.462.564-.711q.32-.288.066-.1a3.68,3.68,0,0,1,.416-.244c-.315.152.473-.12.586-.138-.386.061.507.012.606.016a2.761,2.761,0,0,1,1.009.3,1.023,1.023,0,0,1,.421.285,4.473,4.473,0,0,1,.331.344c-.138-.184-.128-.162.028.066q.117.192.216.393c-.086-.232-.078-.215.023.053.1.3.195.6.278.908.43,1.6.819,3.2,1.3,4.786a110.4,110.4,0,0,0,3.794,10.418,2.48,2.48,0,0,0,2.952,1.676,2.415,2.415,0,0,0,1.677-2.952c-1.315-3.141-2.512-6.331-3.535-9.58-.481-1.53-.935-3.071-1.315-4.63a11.129,11.129,0,0,0-1.37-3.683,7.5,7.5,0,0,0-7.935-2.98c-3.214.755-5.164,4.173-5.9,7.164a14.494,14.494,0,0,0,.582,9.088,2.479,2.479,0,0,0,2.952,1.676,2.414,2.414,0,0,0,1.676-2.952Z"/><path class="d" d="M135.335,143.826c6.828,10.97,20.218,15.349,32.563,15.571a72,72,0,0,0,33.913-7.564,56.919,56.919,0,0,0,15.856-11.989c2.094-2.266-1.292-5.669-3.394-3.394a56.132,56.132,0,0,1-27.451,15.943c-10.878,2.81-23.224,3.512-33.874-.517A26.678,26.678,0,0,1,139.48,141.4c-1.629-2.618-5.783-.21-4.145,2.422Z"/><path class="d" d="M114.616,76.929c1.035,9.371.072,18.638-1.233,27.926-.59,4.2-1.2,8.416-1.452,12.656a40.818,40.818,0,0,0,.658,12.11,19.647,19.647,0,0,0,8.575,11.6c2.59,1.7,5-2.455,2.422-4.145a14.631,14.631,0,0,1-6.368-8.726c-.874-3.524-.7-7.419-.476-11.015.51-8.212,2.227-16.3,2.864-24.5a84.81,84.81,0,0,0-.19-15.9,2.471,2.471,0,0,0-2.4-2.4,2.416,2.416,0,0,0-2.4,2.4Z"/><path class="d" d="M211.145,21.094a46.278,46.278,0,0,1,13.73,22.318,49.487,49.487,0,0,1,1.717,12.661,100.627,100.627,0,0,1-.491,14.954c-.64,4.994-.286,10.3.024,15.317a122.205,122.205,0,0,0,1.386,12.366,109.689,109.689,0,0,0,3.985,15.637,33.13,33.13,0,0,1,1.645,7.522,34.216,34.216,0,0,1,.06,4.1c-.017.4-.044.789-.083,1.183s.056-.352,0,.051c-.029.2-.063.4-.1.6a12.646,12.646,0,0,1-6.392,9.237c-2.724,1.46-.3,5.6,2.423,4.145A16.94,16.94,0,0,0,237,131.545a26.364,26.364,0,0,0,.64-12.275,70.147,70.147,0,0,0-2.777-10.108q-1.215-3.987-2.048-8.077a121.03,121.03,0,0,1-2.137-25.994c.039-2.7.414-5.349.574-8.046.157-2.623.2-5.252.185-7.879a67.261,67.261,0,0,0-1.177-14.023c-2.237-10.3-7.7-20.507-15.719-27.443-2.326-2.012-5.736,1.369-3.394,3.394Z"/><path class="d" d="M204.868,10.3A56.3,56.3,0,0,0,176.289.124a68.16,68.16,0,0,0-27.8,4.136A55.873,55.873,0,0,0,127,18.474a54.682,54.682,0,0,0-12.846,25.82c-2.255,10.794-1.737,22.534.547,33.273.642,3.02,5.271,1.742,4.629-1.276a80.29,80.29,0,0,1-1.095-27.635c1.248-8.721,4.676-17.817,10.31-24.669,10.794-13.129,27.641-19.221,44.343-19.17a51.828,51.828,0,0,1,29.556,9.627,2.423,2.423,0,0,0,3.284-.861,2.448,2.448,0,0,0-.861-3.283Z"/><path class="d" d="M175.743,41.786c1.967,6.187,4.256,12.646,7.73,18.169,3.246,5.162,7.543,10.764,13.1,13.584,2.749,1.395,5.181-2.745,2.423-4.145-4.941-2.508-8.7-7.538-11.556-12.151-3.164-5.118-5.251-11.026-7.066-16.733-.932-2.933-5.568-1.679-4.628,1.276Z"/><path class="d" d="M176.418,39.186c-6.6,7.408-15.351,12.759-24.609,16.2q-1.779.661-3.59,1.235c-.473.15-1.442.287-.5.5l.107.252.008-.035c.018,0,.1-1.2.118-1.391a25.91,25.91,0,0,1,.713-3.856c.423-1.614.882-3.451-.889-4.487-1.578-.923-2.914-.014-4.112,1.006q-1.6,1.365-3.219,2.72-3.44,2.887-6.931,5.716c-4.8,3.878-9.7,7.593-14.767,11.105a2.462,2.462,0,0,0-.861,3.283,2.421,2.421,0,0,0,3.284.861,338.159,338.159,0,0,0,26.594-20.893l-1.059.617.256-.1h-1.276l.242.072-1.059-.617.159.2-.7-1.7a7.447,7.447,0,0,1-.4,1.381q-.216.883-.372,1.78a33.271,33.271,0,0,0-.487,3.838,4.342,4.342,0,0,0,3.474,4.763c2.141.4,4.77-.959,6.744-1.7q3.14-1.178,6.182-2.6A63.052,63.052,0,0,0,179.813,42.58c2.049-2.3-1.334-5.706-3.395-3.394Z"/><path class="d" d="M188.619,125.952a51.631,51.631,0,0,0,9.57-7.989,55.382,55.382,0,0,0,7.484-9.775,2.4,2.4,0,0,0-4.144-2.422,46.32,46.32,0,0,1-2.909,4.287c-.1.139-.515.6-.073.105-.393.439-.739.929-1.114,1.385q-1.275,1.551-2.638,3.025a44.272,44.272,0,0,1-4,3.885c-.231.193-.464.382-.7.57l-.435.342c.418-.326-.21.156-.293.218-1.035.776-2.1,1.513-3.176,2.224a2.456,2.456,0,0,0-.861,3.284,2.426,2.426,0,0,0,3.284.861Z"/><path class="d" d="M229.94,215.692l8.244,30.177c.813,2.976,5.445,1.713,4.629-1.276l-8.244-30.177c-.813-2.976-5.445-1.713-4.629,1.276Z"/></svg>