<svg width="20" height="20" viewBox="0 0 20 20" fill="none" xmlns="http://www.w3.org/2000/svg">
<path d="M19.5 6L10 12L0.5 6" stroke="#242424" stroke-width="0.7" stroke-linecap="round" stroke-linejoin="round"/>
<path d="M14.5833 0H5.41667C3.98008 0 2.60233 0.570683 1.5865 1.5865C0.570683 2.60233 0 3.98008 0 5.41667V14.5833C0 15.2947 0.140106 15.999 0.412319 16.6562C0.684532 17.3134 1.08352 17.9105 1.5865 18.4135C2.60233 19.4293 3.98008 20 5.41667 20H14.5833C15.2947 20 15.999 19.8599 16.6562 19.5877C17.3134 19.3155 17.9105 18.9165 18.4135 18.4135C18.9165 17.9105 19.3155 17.3134 19.5877 16.6562C19.8599 15.999 20 15.2947 20 14.5833V5.41667C20 4.70534 19.8599 4.00098 19.5877 3.3438C19.3155 2.68662 18.9165 2.08949 18.4135 1.5865C17.9105 1.08352 17.3134 0.684532 16.6562 0.412319C15.999 0.140106 15.2947 0 14.5833 0ZM19.1667 14.5833C19.1667 15.7989 18.6838 16.9647 17.8242 17.8242C16.9647 18.6838 15.7989 19.1667 14.5833 19.1667H5.41667C4.20109 19.1667 3.0353 18.6838 2.17576 17.8242C1.31622 16.9647 0.833333 15.7989 0.833333 14.5833V5.41667C0.833333 4.20109 1.31622 3.0353 2.17576 2.17576C3.0353 1.31622 4.20109 0.833333 5.41667 0.833333H14.5833C15.7989 0.833333 16.9647 1.31622 17.8242 2.17576C18.6838 3.0353 19.1667 4.20109 19.1667 5.41667V14.5833Z" fill="#242424"/>
</svg>
