<svg width="20" height="20" viewBox="0 0 20 20" fill="none" xmlns="http://www.w3.org/2000/svg">
<path d="M14.5833 0H5.41667C3.98008 0 2.60233 0.570683 1.5865 1.5865C0.570683 2.60233 0 3.98008 0 5.41667V14.5833C0 15.2947 0.140106 15.999 0.412319 16.6562C0.684532 17.3134 1.08352 17.9105 1.5865 18.4135C2.60233 19.4293 3.98008 20 5.41667 20H14.5833C15.2947 20 15.999 19.8599 16.6562 19.5877C17.3134 19.3155 17.9105 18.9165 18.4135 18.4135C18.9165 17.9105 19.3155 17.3134 19.5877 16.6562C19.8599 15.999 20 15.2947 20 14.5833V5.41667C20 4.70534 19.8599 4.00098 19.5877 3.3438C19.3155 2.68662 18.9165 2.08949 18.4135 1.5865C17.9105 1.08352 17.3134 0.684532 16.6562 0.412319C15.999 0.140106 15.2947 0 14.5833 0ZM19.1667 14.5833C19.1667 15.7989 18.6838 16.9647 17.8242 17.8242C16.9647 18.6838 15.7989 19.1667 14.5833 19.1667H5.41667C4.20109 19.1667 3.0353 18.6838 2.17576 17.8242C1.31622 16.9647 0.833333 15.7989 0.833333 14.5833V5.41667C0.833333 4.20109 1.31622 3.0353 2.17576 2.17576C3.0353 1.31622 4.20109 0.833333 5.41667 0.833333H14.5833C15.7989 0.833333 16.9647 1.31622 17.8242 2.17576C18.6838 3.0353 19.1667 4.20109 19.1667 5.41667V14.5833Z" fill="#242424"/>
<path d="M12.6047 4.00263H10.5325C7.89344 3.97997 7.55637 5.38138 7.55637 6.89807V8.00094H6.39137C6.33872 7.9949 6.28515 7.99936 6.23483 8.01397C6.18451 8.02858 6.13879 8.05295 6.10123 8.08518C6.06366 8.11741 6.03527 8.15664 6.01824 8.19981C6.00121 8.24299 5.99601 8.28895 6.00304 8.33413V10.3333C5.99601 10.3785 6.00121 10.4244 6.01824 10.4676C6.03527 10.5108 6.06366 10.55 6.10123 10.5822C6.13879 10.6145 6.18451 10.6388 6.23483 10.6534C6.28515 10.668 6.33872 10.6725 6.39137 10.6665H7.55637V15.6644C7.54989 15.7096 7.55557 15.7555 7.57295 15.7986C7.59033 15.8417 7.61896 15.8808 7.65665 15.913C7.69434 15.9451 7.7401 15.9695 7.79042 15.9841C7.84075 15.9988 7.89432 16.0034 7.94703 15.9975H10.3197C10.5488 16.0202 10.7345 15.8609 10.6615 15.6644L10.663 10.6665H12.6047C12.6573 10.6725 12.7109 10.668 12.7612 10.6534C12.8115 10.6388 12.8572 10.6145 12.8948 10.5822C12.9324 10.55 12.9608 10.5108 12.9778 10.4676C12.9948 10.4244 13 10.3785 12.993 10.3333V8.33413C13 8.28895 12.9948 8.24299 12.9778 8.19981C12.9608 8.15664 12.9324 8.11741 12.8948 8.08518C12.8572 8.05295 12.8115 8.02858 12.7612 8.01397C12.7109 7.99936 12.6573 7.9949 12.6047 8.00094H10.6607L10.663 7.00136C10.7383 6.57554 10.7383 6.64484 11.1989 6.66817H12.5884C12.6963 6.64751 12.8113 6.65884 12.892 6.59153C12.9728 6.52423 13.0194 6.43227 12.9922 6.33498V4.33582C12.9994 4.29068 12.9943 4.24473 12.9774 4.20154C12.9605 4.15836 12.9321 4.11912 12.8946 4.08687C12.8571 4.05462 12.8114 4.03024 12.7611 4.01563C12.7108 4.00102 12.6573 3.99657 12.6047 4.00263ZM12.1892 5.96447L11.2152 5.93248C10.0091 5.93248 9.9081 6.49424 9.9081 7.06933L9.90499 8.3328C9.90489 8.37958 9.91554 8.42593 9.93634 8.46918C9.95713 8.51243 9.98767 8.55174 10.0262 8.58485C10.0647 8.61796 10.1105 8.64424 10.1608 8.66216C10.2112 8.68008 10.2652 8.68931 10.3197 8.68931H12.2163V9.97677H10.3213C10.2112 9.97677 10.1056 10.0142 10.0277 10.081C9.94984 10.1477 9.90597 10.2382 9.90577 10.3326L9.90499 15.3312H8.33303V10.3333C8.33303 10.1367 8.17692 9.97743 7.94703 9.97743H6.7797V8.68998H7.94703C8.00152 8.69005 8.0555 8.6809 8.10587 8.66307C8.15625 8.64523 8.20203 8.61905 8.2406 8.58602C8.31827 8.51872 8.33225 8.42809 8.33225 8.33346V6.8974C8.33225 5.40337 8.68408 4.69167 10.5318 4.69167H12.1884V5.96447H12.1892Z" fill="#242424"/>
</svg>
